HIERARCHY
ROOT Hips
{
	OFFSET 0.000000 0.000000 0.000000
	CHANNELS 6 Xposition Yposition Zposition Zrotation Yrotation Xrotation 
	JOINT LHipJoint
	{
		OFFSET 0.000000 0.000000 0.000000
		CHANNELS 3 Zrotation Yrotation Xrotation
		JOINT LeftUpLeg
		{
			OFFSET 1.363060 -1.794630 0.839290
			CHANNELS 3 Zrotation Yrotation Xrotation
			JOINT LeftLeg
			{
				OFFSET 2.448110 -6.726130 0.000000
				CHANNELS 3 Zrotation Yrotation Xrotation
				JOINT LeftFoot
				{
					OFFSET 2.562200 -7.039590 0.000000
					CHANNELS 3 Zrotation Yrotation Xrotation
					JOINT LeftToeBase
					{
						OFFSET 0.157640 -0.433110 2.322550
						CHANNELS 3 Zrotation Yrotation Xrotation
						End Site
						{
							OFFSET 0.000000 0.000000 0.000000
						}
					}
				}
			}
		}
	}
	JOINT RHipJoint
	{
		OFFSET 0.000000 0.000000 0.000000
		CHANNELS 3 Zrotation Yrotation Xrotation
		JOINT RightUpLeg
		{
			OFFSET -1.305520 -1.794630 0.839290
			CHANNELS 3 Zrotation Yrotation Xrotation
			JOINT RightLeg
			{
				OFFSET -2.542530 -6.985550 0.000000
				CHANNELS 3 Zrotation Yrotation Xrotation
				JOINT RightFoot
				{
					OFFSET -2.568260 -7.056230 0.000000
					CHANNELS 3 Zrotation Yrotation Xrotation
					JOINT RightToeBase
					{
						OFFSET -0.164730 -0.452590 2.363150
						CHANNELS 3 Zrotation Yrotation Xrotation
						End Site
						{
							OFFSET 0.000000 0.000000 0.000000
						}
					}
				}
			}
		}
	}
	JOINT LowerBack
	{
		OFFSET 0.000000 0.000000 0.000000
		CHANNELS 3 Zrotation Yrotation Xrotation
		JOINT Spine
		{
			OFFSET 0.028270 2.035590 -0.193380
			CHANNELS 3 Zrotation Yrotation Xrotation
			JOINT Spine1
			{
				OFFSET 0.056720 2.048850 -0.042750
				CHANNELS 3 Zrotation Yrotation Xrotation
				JOINT Neck
				{
					OFFSET 0.000000 0.000000 0.000000
					CHANNELS 3 Zrotation Yrotation Xrotation
					JOINT Neck1
					{
						OFFSET -0.054170 1.746240 0.172020
						CHANNELS 3 Zrotation Yrotation Xrotation
						JOINT Head
						{
							OFFSET 0.104070 1.761360 -0.123970
							CHANNELS 3 Zrotation Yrotation Xrotation
							End Site
							{
								OFFSET 0.000000 0.000000 0.000000
							}
						}
					}
				}
				JOINT LeftShoulder
				{
					OFFSET 0.000000 0.000000 0.000000
					CHANNELS 3 Zrotation Yrotation Xrotation
					JOINT LeftArm
					{
						OFFSET 3.362410 1.200890 -0.311210
						CHANNELS 3 Zrotation Yrotation Xrotation
						JOINT LeftForeArm
						{
							OFFSET 4.983000 -0.000000 -0.000000
							CHANNELS 3 Zrotation Yrotation Xrotation
							JOINT LeftHand
							{
								OFFSET 3.483560 -0.000000 -0.000000
								CHANNELS 3 Zrotation Yrotation Xrotation
								JOINT LeftFingerBase
								{
									OFFSET 0.000000 0.000000 0.000000
									CHANNELS 3 Zrotation Yrotation Xrotation
									JOINT LeftHandIndex1
									{
										OFFSET 0.715260 -0.000000 -0.000000
										CHANNELS 3 Zrotation Yrotation Xrotation
										End Site
										{
											OFFSET 0.000000 0.000000 0.000000
										}
									}
								}
								JOINT LThumb
								{
									OFFSET 0.000000 0.000000 0.000000
									CHANNELS 3 Zrotation Yrotation Xrotation
									End Site
									{
										OFFSET 0.000000 0.000000 0.000000
									}
								}
							}
						}
					}
				}
				JOINT RightShoulder
				{
					OFFSET 0.000000 0.000000 0.000000
					CHANNELS 3 Zrotation Yrotation Xrotation
					JOINT RightArm
					{
						OFFSET -3.136600 1.374050 -0.404650
						CHANNELS 3 Zrotation Yrotation Xrotation
						JOINT RightForeArm
						{
							OFFSET -5.241900 -0.000000 -0.000000
							CHANNELS 3 Zrotation Yrotation Xrotation
							JOINT RightHand
							{
								OFFSET -3.444170 -0.000000 -0.000000
								CHANNELS 3 Zrotation Yrotation Xrotation
								JOINT RightFingerBase
								{
									OFFSET 0.000000 0.000000 0.000000
									CHANNELS 3 Zrotation Yrotation Xrotation
									JOINT RightHandIndex1
									{
										OFFSET -0.622530 -0.000000 -0.000000
										CHANNELS 3 Zrotation Yrotation Xrotation
										End Site
										{
											OFFSET 0.000000 0.000000 0.000000
										}
									}
								}
								JOINT RThumb
								{
									OFFSET 0.000000 0.000000 0.000000
									CHANNELS 3 Zrotation Yrotation Xrotation
									End Site
									{
										OFFSET 0.000000 0.000000 0.000000
									}
								}
							}
						}
					}
				}
			}
		}
	}
}
MOTION
Frames: 6
Frame Time: 0.008333
10.251419 17.757390 -4.856864 -1.593555 -14.850940 9.486127 -0.411746 -2.742250 -4.493390 -12.029045 2.454502 -36.717434 -1.783261 10.644393 22.755152 -1.212970 10.900652 19.466903 0.247100 -3.198500 -8.832000 0.975574 -2.706163 5.001760 13.649330 6.061836 3.863699 0.421278 -8.110675 27.221849 -1.961295 -3.612132 36.893709 -0.003400 -0.378900 1.041000 -0.026989 6.767983 -2.517377 0.309906 8.517453 -3.906967 -2.477554 5.013418 -0.514841 -4.512026 -1.632487 -12.737753 5.827488 -1.994250 9.061942 1.578300 -0.803800 5.327500 2.338905 -7.211953 0.350963 -93.756804 29.285223 -23.359456 1.203072 -4.937495 -0.316920 -0.386218 0.896977 23.493217 13.592834 -5.073528 -1.462100 -7.125000 0.000000 0.000000 -9.192200 24.060800 4.704100 -3.478945 9.055935 1.131859 73.457496 27.495751 24.147273 -30.273673 35.561805 -13.681391 2.360344 1.921805 -20.315909 -23.938421 -33.909950 15.815600 7.125000 0.000000 0.000000 8.181000 -67.025600 -4.350900
10.252461 17.767341 -4.720327 -1.776068 -14.775140 9.329484 -0.404989 -2.714661 -4.384630 -12.020494 2.625967 -36.527815 -1.710952 10.732865 23.174256 -1.017283 10.291713 19.590175 0.193834 -2.809429 -7.750321 0.954445 -2.618835 4.830888 13.965488 6.190333 3.595389 0.011494 -8.636157 28.555051 -1.880092 -4.417597 37.577706 -0.012869 0.306967 -0.843936 0.139188 6.744254 -2.244512 0.303998 8.498480 -3.914290 -2.631851 4.984529 -0.679874 -4.396892 -1.625750 -12.536024 5.833555 -2.018335 8.945714 1.570529 -0.814247 5.226938 2.320280 -7.251355 0.363027 -93.489025 29.006251 -23.480949 1.250653 -4.971194 -0.328828 -0.392834 0.925526 23.624269 13.946114 -5.138918 -1.525298 -7.125000 0.000000 0.000000 -8.912800 23.960805 4.578012 -3.502952 9.056908 1.108007 74.008917 26.857691 24.197115 -30.361682 35.735560 -13.732868 2.332367 1.896616 -20.293415 -23.707341 -33.861124 15.626314 7.125000 0.000000 0.000000 8.488346 -66.902394 -4.490626
10.253594 17.777572 -4.583668 -1.935121 -14.694842 9.171674 -0.400253 -2.687233 -4.275261 -12.036310 2.791098 -36.339574 -1.639676 10.822074 23.594596 -0.827292 9.692037 19.692583 0.142361 -2.431077 -6.698583 0.931962 -2.532297 4.661472 14.257977 6.313380 3.316971 -0.398543 -9.159003 29.892962 -1.809272 -5.181579 38.269584 -0.027854 1.015980 -2.793557 0.281804 6.716672 -1.977579 0.296820 8.474804 -3.921760 -2.781563 4.953432 -0.843514 -4.282103 -1.620090 -12.338430 5.836717 -2.043179 8.832437 1.560535 -0.825210 5.129101 2.301402 -7.290672 0.374915 -93.221730 28.726715 -23.604037 1.298102 -5.005005 -0.340755 -0.399464 0.953919 23.749488 14.297572 -5.204083 -1.588344 -7.125000 0.000000 0.000000 -8.634878 23.861096 4.452539 -3.527178 9.058216 1.083808 74.557691 26.209906 24.254745 -30.457232 35.914578 -13.786519 2.302425 1.871840 -20.274265 -23.425919 -33.798237 15.400285 7.125000 0.000000 0.000000 8.851504 -66.753379 -4.652866
10.256256 17.792441 -4.444990 -1.705408 -14.539997 8.994518 -0.428991 -2.662461 -4.155789 -12.455935 2.851267 -36.174175 -1.585501 10.923503 24.035425 -0.731698 9.245861 19.449255 0.120592 -2.230366 -6.143024 0.887054 -2.458840 4.516195 14.158243 6.346106 2.871070 -0.812793 -9.638181 31.308909 -1.910520 -5.258128 39.092066 -0.134231 2.108570 -5.815085 0.033996 6.625233 -1.808969 0.268608 8.373193 -3.931671 -2.855303 4.885732 -0.984083 -4.173024 -1.632268 -12.209361 5.791743 -2.080582 8.768050 1.513702 -0.844715 5.076401 2.278346 -7.328583 0.383899 -92.962468 28.437844 -23.753572 1.343347 -5.040660 -0.353009 -0.406338 0.979736 23.778045 14.618844 -5.265533 -1.648867 -7.125000 0.000000 0.000000 -8.381467 23.766144 4.337259 -3.555030 9.065074 1.053862 75.062615 25.400950 24.441416 -30.677744 36.180825 -13.876195 2.239931 1.853921 -20.310533 -22.310281 -33.502355 14.565377 7.125000 0.000000 0.000000 10.139556 -66.176669 -5.188199
10.258640 17.807415 -4.306576 -1.421175 -14.379054 8.824747 -0.461001 -2.638439 -4.035062 -12.933527 2.902186 -36.021352 -1.537479 11.022856 24.469369 -0.631894 8.782027 19.189044 0.102337 -2.062558 -5.678518 0.841256 -2.390354 4.369650 13.999407 6.363359 2.399980 -1.247833 -10.121662 32.724186 -1.979779 -5.488924 39.865875 -0.225600 3.056192 -8.435382 -0.277183 6.526521 -1.667110 0.237765 8.262364 -3.941369 -2.909170 4.814487 -1.109863 -4.075494 -1.645405 -12.107184 5.750569 -2.116157 8.714561 1.469798 -0.863049 5.036026 2.254136 -7.365765 0.391157 -92.709525 28.135687 -23.907654 1.390354 -5.079211 -0.365028 -0.407922 1.003916 23.811231 14.885264 -5.360961 -1.711954 -7.125000 0.000000 0.000000 -8.171070 23.637721 4.251244 -3.584047 9.073008 1.024377 75.566223 24.614599 24.615111 -30.879932 36.432594 -13.959559 2.182590 1.835223 -20.334773 -21.322377 -33.239037 13.823456 7.125000 0.000000 0.000000 11.281826 -65.662923 -5.662319
10.258871 17.823209 -4.170212 -0.712462 -14.170632 8.712466 -0.518476 -2.620254 -3.904567 -13.862441 2.881078 -35.966454 -1.537366 11.106056 24.849698 -0.499305 8.180709 18.797397 0.111446 -2.150922 -5.922923 0.788522 -2.360572 4.213229 13.380417 6.260152 1.732785 -1.844733 -10.638636 34.134248 -1.799982 -6.920653 40.260725 -0.200126 2.875141 -7.931803 -1.081757 6.371182 -1.733527 0.186441 8.079759 -3.949416 -2.808310 4.715652 -1.120503 -4.067885 -1.666014 -12.214380 5.738992 -2.137496 8.745924 1.448698 -0.872261 5.091608 2.220937 -7.397266 0.384981 -92.505786 27.730084 -24.097132 1.451075 -5.140315 -0.375224 -0.368318 1.015358 23.880464 14.724625 -5.720928 -1.795018 -7.125000 0.000000 0.000000 -8.295562 23.248702 4.393080 -3.622133 9.089313 0.998482 76.059594 24.004239 24.687782 -30.939454 36.571633 -13.993775 2.165374 1.810469 -20.265370 -21.328985 -33.229261 13.805495 7.125000 0.000000 0.000000 11.289082 -65.639404 -5.659849
